<svg width="69" height="45" viewBox="0 0 69 45" fill="none" xmlns="http://www.w3.org/2000/svg">
<g id="&#240;&#159;&#166;&#134; emoji &#34;cafeteria&#34;">
<g id="Group">
<path id="Vector" d="M20.2523 15.6128C20.2523 15.6128 19.5195 15.1942 18.9963 10.3805H26.3252C26.3252 10.3805 26.0111 14.4614 24.8599 15.6128" stroke="black" stroke-opacity="0.87" stroke-width="1.96883" stroke-miterlimit="10" stroke-linecap="round" stroke-linejoin="round"/>
<path id="Vector_2" d="M36.5891 43.7652H32.4013V19.6916L13.5504 19.587V15.6107H55.4281V19.587L36.5772 19.6916L36.5891 43.7652Z" stroke="black" stroke-opacity="0.87" stroke-width="1.96883" stroke-miterlimit="10" stroke-linecap="round" stroke-linejoin="round"/>
<path id="Vector_3" d="M47.045 28.173L47.0557 43.7652H42.868V23.9863H63.8122V1.90906H68V43.7652H63.8122V28.173H47.045Z" stroke="black" stroke-opacity="0.87" stroke-width="1.96883" stroke-miterlimit="10" stroke-linecap="round" stroke-linejoin="round"/>
<path id="Vector_4" d="M20.889 5.45906C20.889 5.45906 21.5172 3.36571 20.889 1.27344" stroke="black" stroke-opacity="0.87" stroke-width="1.96883" stroke-miterlimit="10" stroke-linecap="round" stroke-linejoin="round"/>
<path id="Vector_5" d="M23.8131 5.45897C23.8131 5.45897 24.4414 3.57496 23.8131 1.79669" stroke="black" stroke-opacity="0.87" stroke-width="1.96883" stroke-miterlimit="10" stroke-linecap="round" stroke-linejoin="round"/>
<path id="Vector_6" d="M26.1223 23.9863V43.7652H21.9346V28.173L5.18778 28.173V43.6789L1 43.7652V1.90906H5.18778V23.9863L26.1223 23.9863Z" stroke="black" stroke-opacity="0.87" stroke-width="1.96883" stroke-miterlimit="10" stroke-linecap="round" stroke-linejoin="round"/>
</g>
</g>
</svg>
