<svg width="40" height="39" viewBox="0 0 40 39" fill="none" xmlns="http://www.w3.org/2000/svg">
<g id="&#240;&#159;&#166;&#134; icon &#34;pencil edit thin&#34;">
<path id="Vector" d="M2.1777 36.9967L4.24568 27.1134L29.5906 1.63238C30.5993 0.627109 31.9896 0.00414785 33.5254 0H33.5376C36.6166 0 39.1126 2.49599 39.1126 5.57495C39.1126 7.11553 38.4876 8.51015 37.4776 9.51917L12.0697 34.9287L2.1777 36.9967ZM5.84495 27.9757L4.44251 34.7457L11.2125 33.3294L36.2475 8.28573C36.9415 7.59202 37.3707 6.63363 37.3707 5.57487C37.3707 3.4581 35.6547 1.7421 33.538 1.7421H33.5263C32.4718 1.74421 31.5176 2.17183 30.8259 2.86241V2.86233L5.84495 27.9757ZM39.8956 38.3277H0V36.5855H39.8956V38.3277ZM32.6412 13.1255L25.9862 6.47038L27.2196 5.23698L33.8747 11.8921L32.6412 13.1255Z" fill="#9c6644"/>
</g>
</svg>
