<svg width="59" height="48" viewBox="0 0 59 48" fill="none" xmlns="http://www.w3.org/2000/svg">
<g id="&#240;&#159;&#166;&#134; icon &#34;coffee cup 1&#34;">
<g id="Group">
<path id="Vector" d="M41.4762 40.1044C36.4066 46.1391 29.4955 48.1636 21.7291 47.9899C18.0297 47.9072 14.4468 47.1691 11.0855 45.5489C7.8249 43.9832 5.1338 41.4398 3.38685 38.2728C0.38557 32.9863 -0.681516 27.3523 0.428689 21.3502C0.628179 20.2722 0.94092 19.3836 2.07145 18.6644C5.43873 16.5228 9.17751 15.5579 13 14.974C19.6204 13.9627 26.3044 13.6509 32.9751 14.3921C36.3206 14.8052 39.6416 15.3978 42.9235 16.1672C45.5283 16.7451 45.6371 17.0222 46.0667 19.5088C47.0209 19.1492 47.9501 18.6828 48.9329 18.4501C51.9678 17.7314 55.0291 19.005 56.8924 21.7093C60.0418 26.281 60.2626 34.5607 53.3535 39.2858C50.7237 41.0842 47.8651 42.1931 44.6199 41.4228C43.577 41.1759 42.615 40.5933 41.4762 40.1044ZM2.71676 23.1898C2.46115 28.3603 3.87298 33.4762 6.74422 37.7838C8.19239 40.0704 10.3135 41.8521 12.8157 42.884C19.9678 45.7728 27.12 45.8517 34.1465 42.4544C36.8257 41.1959 39.0096 39.0815 40.3541 36.4446C42.6641 31.9398 43.1651 27.1085 42.9948 22.0835C41.9595 22.4575 41.0258 22.9509 40.0362 23.1244C36.9136 23.6695 33.7822 24.3882 30.6338 24.5099C21.3251 24.8665 12.0061 24.9661 2.71676 23.1898ZM4.45319 20.4212L4.51315 20.8236C5.51481 20.9929 6.51178 21.2732 7.51839 21.3131C14.3955 21.5857 21.2721 21.9178 28.1531 22.0025C31.8121 22.0473 35.4904 21.7245 39.0375 20.6519C39.7432 20.435 40.4202 20.1328 41.0526 19.7521C41.1915 19.6476 41.3037 19.5113 41.3792 19.3546C41.4551 19.198 41.4921 19.0255 41.4876 18.8515C41.4268 18.6911 41.3301 18.5467 41.2055 18.4292C41.0805 18.3116 40.9303 18.2241 40.7668 18.1733C39.7009 17.8704 38.621 17.5327 37.5264 17.4363C34.204 17.1431 30.8754 16.8829 27.5435 16.7441C20.9958 16.4715 14.5276 17.0264 8.23879 18.9928C6.9529 19.3945 5.71356 19.9412 4.45319 20.4212ZM45.9233 23.2493C46.4209 23.1041 46.6841 23.016 46.9525 22.9504C49.668 22.2872 52.3303 23.5483 53.281 25.9898C53.8794 27.5439 53.9746 29.2467 53.5536 30.8579C52.4348 35.3594 47.9863 38.0198 43.2784 37.03L42.8615 37.9982C44.3548 38.1916 45.7579 38.6519 47.0862 38.4921C50.7868 38.0462 53.4301 35.8883 54.8064 32.4974C56.1407 29.2124 55.762 25.9019 53.7001 22.962C51.9097 20.4105 47.6439 20.4943 45.9233 23.2493ZM44.5557 34.6224C48.7543 35.1755 52.2891 30.8465 50.877 26.7518C50.2955 25.0647 47.6401 24.295 46.3174 25.4578C46.1015 25.693 45.9648 25.99 45.9267 26.307C45.4596 29.0511 45.0175 31.7993 44.5557 34.6224Z" fill="#363233" fill-opacity="0.87"/>
<path id="Vector_2" d="M26.909 9.16758C26.8568 10.6545 26.5007 11.8061 25.5567 12.6201C25.3364 12.7791 25.0869 12.8931 24.8225 12.9555C24.5581 13.0179 24.284 13.0276 24.0158 12.9839C23.2992 12.8503 23.2531 12.0945 23.4476 11.5682C24.1306 9.71849 23.7613 7.99443 23.2652 6.15936C22.7777 4.35653 23.3839 2.58019 24.3821 0.990216C24.7538 0.399428 25.2822 0.0800008 25.9433 0.413063C26.5772 0.73175 26.5877 1.36095 26.3287 1.92176C25.4777 3.77169 25.5518 5.55793 26.4575 7.37861C26.7606 7.98552 26.803 8.72152 26.909 9.16758Z" fill="#363233" fill-opacity="0.87"/>
<path id="Vector_3" d="M11.5002 13.063C11.5215 12.8883 11.5728 12.7186 11.6519 12.5612C12.516 11.2872 12.1552 10.0831 11.55 8.83286C10.3206 6.29226 10.6901 3.96679 12.5881 1.88887C12.8084 1.6475 13.0453 1.31643 13.3241 1.25596C13.8019 1.15287 14.4393 1.04606 14.7917 1.27553C15.3269 1.62247 15.0514 2.17585 14.7257 2.67445C14.2623 3.39968 13.8466 4.15438 13.4815 4.93376C12.997 5.9421 13.2641 6.92024 13.6301 7.92042C14.0478 8.94277 14.3482 10.0091 14.5257 11.0991C14.6906 12.442 13.9127 13.6447 12.9098 14.0367C12.0558 14.37 11.464 14.0001 11.5002 13.063Z" fill="#363233" fill-opacity="0.87"/>
<path id="Vector_4" d="M30.5782 8.36326C30.3359 7.45527 30.1458 6.57157 29.8628 5.71886C29.2906 3.99481 29.778 2.47248 30.6806 1.02276C31.0637 0.406946 31.6367 0.019615 32.3481 0.381176C33.0968 0.761819 32.8395 1.43043 32.5712 2.00065C32.2844 2.57212 32.1442 3.20588 32.163 3.84498C32.1818 4.48406 32.3591 5.10848 32.679 5.66211C33.6744 7.56681 33.7267 9.49948 32.2195 11.1819C31.7313 11.7271 30.975 12.1023 30.2699 12.36C29.7121 12.564 29.2993 12.2609 29.5406 11.5395C29.8915 10.4935 30.2266 9.44247 30.5782 8.36326Z" fill="#363233" fill-opacity="0.87"/>
<path id="Vector_5" d="M20.1465 1.33481C20.0406 1.68374 19.9173 2.02714 19.777 2.36373C19.1106 3.74257 19.2657 5.05673 19.9913 6.3689C20.6981 7.64713 21.2158 9.02647 20.9908 10.493C20.8352 11.3243 20.4914 12.1088 19.9856 12.7865C19.7676 13.0894 18.9855 13.2222 18.5875 13.078C18.3104 12.9788 18.0453 12.2287 18.13 11.8488C18.5552 9.9451 18.1905 8.23519 17.37 6.48565C16.4481 4.51971 16.8961 2.60881 18.2985 0.982906C18.5543 0.685528 19.1384 0.564371 19.5666 0.572797C19.7698 0.576762 19.9631 1.07833 20.1465 1.33481Z" fill="#363233" fill-opacity="0.87"/>
</g>
</g>
</svg>
