<svg width="67" height="67" viewBox="0 0 67 67" fill="none" xmlns="http://www.w3.org/2000/svg">
<g id="&#240;&#159;&#166;&#134; icon &#34;User Circle&#34;">
<path id="Vector" d="M33.5 0C14.994 0 0 14.994 0 33.5C0 52.0061 14.994 67 33.5 67C52.0061 67 67 52.0061 67 33.5C67 14.994 52.0061 0 33.5 0ZM33.5 12.9677C40.0649 12.9677 45.3871 18.2899 45.3871 24.8548C45.3871 31.4198 40.0649 36.7419 33.5 36.7419C26.9351 36.7419 21.6129 31.4198 21.6129 24.8548C21.6129 18.2899 26.9351 12.9677 33.5 12.9677ZM33.5 59.4355C25.5708 59.4355 18.4655 55.8423 13.7107 50.223C16.2502 45.4411 21.2212 42.1452 27.0161 42.1452C27.3403 42.1452 27.6645 42.1992 27.9752 42.2938C29.7313 42.8611 31.5683 43.2258 33.5 43.2258C35.4317 43.2258 37.2823 42.8611 39.0248 42.2938C39.3355 42.1992 39.6597 42.1452 39.9839 42.1452C45.7788 42.1452 50.7498 45.4411 53.2893 50.223C48.5345 55.8423 41.4292 59.4355 33.5 59.4355Z" fill="black" fill-opacity="0.84"/>
</g>
</svg>
