<svg width="99" height="78" viewBox="0 0 99 78" fill="none" xmlns="http://www.w3.org/2000/svg">
<g id="&#240;&#159;&#166;&#134; icon &#34;arrow ios back icon&#34;">
<path id="Vector" d="M77.8573 61.5C78.3882 61.5017 78.9128 61.3949 79.3924 61.1876C79.8721 60.9803 80.2947 60.6777 80.6292 60.302L97.7938 40.8742C98.3165 40.2949 98.6022 39.5681 98.6022 38.8181C98.6022 38.0682 98.3165 37.3414 97.7938 36.762L80.0251 17.3343C79.4219 16.6731 78.5551 16.2572 77.6154 16.1783C76.6756 16.0993 75.74 16.3638 75.0143 16.9134C74.2885 17.463 73.8322 18.2527 73.7455 19.1089C73.6589 19.9651 73.9491 20.8176 74.5523 21.4789L90.4375 38.8343L75.0854 56.1898C74.6508 56.6651 74.3747 57.2438 74.2899 57.8576C74.205 58.4713 74.3149 59.0944 74.6065 59.653C74.8981 60.2117 75.3592 60.6825 75.9353 61.0098C76.5114 61.3371 77.1784 61.5073 77.8573 61.5Z" fill="#666666"/>
</g>
</svg>
