<svg width="90" height="72" viewBox="0 0 90 72" fill="none" xmlns="http://www.w3.org/2000/svg">
<g id="&#240;&#159;&#166;&#134; icon &#34;arrow ios back icon&#34;">
<path id="Vector" d="M19.0583 56.8034C18.5705 56.805 18.0886 56.7069 17.6479 56.5164C17.2072 56.3259 16.819 56.0479 16.5117 55.7028L0.742704 37.8547C0.262511 37.3224 0 36.6547 0 35.9657C0 35.2767 0.262511 34.6091 0.742704 34.0768L17.0667 16.2286C17.6209 15.6212 18.4172 15.2391 19.2805 15.1666C20.1438 15.0941 21.0034 15.337 21.6701 15.8419C22.3368 16.3468 22.7561 17.0724 22.8357 17.859C22.9153 18.6456 22.6487 19.4288 22.0945 20.0362L7.50085 35.9806L21.6048 51.9249C22.004 52.3616 22.2576 52.8933 22.3356 53.4571C22.4136 54.021 22.3126 54.5934 22.0447 55.1066C21.7768 55.6198 21.3532 56.0524 20.8239 56.3531C20.2947 56.6538 19.682 56.8101 19.0583 56.8034Z" fill="#666666"/>
</g>
</svg>
