<svg width="36" height="52" viewBox="0 0 36 52" fill="none" xmlns="http://www.w3.org/2000/svg">
<g id="&#240;&#159;&#166;&#134; icon &#34;drink&#34;">
<path id="Vector" d="M19.4192 11.1429L19.8552 14.8571H30.894L29.9782 22.2857H17.0079L16.1559 14.8571H16.1661L15.7301 11.1429L15.7249 11.0977L14.69 2.07373L14.4521 0H0V3.71429H11.1903L12.0422 11.1429H1.58845L6.22468 48.7464C6.33661 49.6441 6.7674 50.4697 7.43639 51.0686C8.10538 51.6675 8.96672 51.9986 9.85914 52H26.7728C27.6653 51.9988 28.5267 51.6677 29.1958 51.0688C29.8649 50.4699 30.2958 49.6442 30.4077 48.7464L35.0435 11.1429H19.4192ZM5.73793 14.8571H12.4681L13.3201 22.2857H6.65373L5.73793 14.8571ZM26.7744 48.2857H9.85903L7.11163 26H13.746L15.3433 39.9286H19.0311L17.4337 26H29.5208L26.7744 48.2857Z" fill="black" fill-opacity="0.71"/>
</g>
</svg>
