<svg width="39" height="45" viewBox="0 0 39 45" fill="none" xmlns="http://www.w3.org/2000/svg">
<g id="&#240;&#159;&#166;&#134; icon &#34;Trash&#34;">
<path id="Vector" d="M37.6071 2.81251H27.1607L26.3424 1.16896C26.1691 0.817586 25.9021 0.522018 25.5714 0.315506C25.2407 0.108995 24.8596 -0.00026613 24.4708 1.54096e-05H14.5205C14.1326 -0.0014902 13.7521 0.107363 13.4226 0.314104C13.0931 0.520846 12.828 0.817112 12.6576 1.16896L11.8393 2.81251H1.39286C1.02345 2.81251 0.66917 2.96067 0.407958 3.2244C0.146747 3.48812 0 3.8458 0 4.21876L0 7.03126C0 7.40422 0.146747 7.76191 0.407958 8.02563C0.66917 8.28935 1.02345 8.43751 1.39286 8.43751H37.6071C37.9766 8.43751 38.3308 8.28935 38.592 8.02563C38.8533 7.76191 39 7.40422 39 7.03126V4.21876C39 3.8458 38.8533 3.48812 38.592 3.2244C38.3308 2.96067 37.9766 2.81251 37.6071 2.81251ZM4.63125 41.0449C4.69768 42.116 5.1659 43.1212 5.94058 43.856C6.71527 44.5908 7.73819 44.9999 8.80112 45H30.1989C31.2618 44.9999 32.2847 44.5908 33.0594 43.856C33.8341 43.1212 34.3023 42.116 34.3687 41.0449L36.2143 11.25H2.78571L4.63125 41.0449Z" fill="#9c6644"/>
</g>
</svg>
