<svg width="48" height="48" viewBox="0 0 48 48" fill="none" xmlns="http://www.w3.org/2000/svg">
<g id="&#240;&#159;&#166;&#134; icon &#34;logout circle line&#34;">
<path id="Vector" d="M9.94639 21.8821H25.8606V25.8606H9.94639V31.8285L0 23.8714L9.94639 15.9143V21.8821ZM7.95711 35.807H13.3441C15.6411 37.8328 18.4738 39.1527 21.5024 39.6084C24.5309 40.0641 27.6266 39.6363 30.4181 38.3762C33.2095 37.1161 35.578 35.0773 37.2394 32.5045C38.9008 29.9316 39.7846 26.934 39.7846 23.8714C39.7846 20.8087 38.9008 17.8111 37.2394 15.2383C35.578 12.6654 33.2095 10.6266 30.4181 9.36654C27.6266 8.10645 24.5309 7.67859 21.5024 8.1343C18.4738 8.59001 15.6411 9.90994 13.3441 11.9357H7.95711C9.80846 9.46337 12.2109 7.45686 14.9734 6.07556C17.736 4.69427 20.7827 3.97626 23.8713 3.97858C34.8581 3.97858 43.7641 12.8846 43.7641 23.8714C43.7641 34.8582 34.8581 43.7642 23.8713 43.7642C20.7827 43.7665 17.736 43.0485 14.9734 41.6672C12.2109 40.2859 9.80846 38.2794 7.95711 35.807Z" fill="black" fill-opacity="0.86"/>
</g>
</svg>
